# xmcd
#
# Track frame offsets:
#	183
#	12243
#	23605
#	36898
#	49623
#	61118
#	73638
#	85503
#	97405
#	111188
#	122945
#	135720
#	146720
#	159463
#	169818
#	182700
#	193020
#	205313
#	216988
#	228485
#	240760
#
# Disc length: 3360 seconds
#
# Revision: 2
# Processed by: cddbd v1.5.2PL0 Copyright (c) Steve Scherf et al.
# Submitted via: EasyCDDAExtractor 15.3.0.1
#
DISCID=270d1e15
DTITLE=Ray Charles - The Birth Of A Legend 1949-1952 CD1  (1992) 
DYEAR=1900
DGENRE=R&B
TTITLE0=I Love You, I Love You
TTITLE1=Confession Blues 
TTITLE2=Alone In This City
TTITLE3=Can Anyone Ask For More?
TTITLE4=Let's Have A Ball
TTITLE5=Rockin' Chair Blues
TTITLE6=If I Give You My Love
TTITLE7=Can't You See Darling?
TTITLE8=This Love Of Mine
TTITLE9=How Long Blues
TTITLE10=Blues Before Sunrise
TTITLE11=A Sentimental Blues
TTITLE12=You'll Never Miss The Water
TTITLE13=Ain't That Fine
TTITLE14=Don't Put All Your Dreams In One Basket
TTITLE15=Sittin' On Top Of The World
TTITLE16=I've Had My Fun
TTITLE17=See See Rider
TTITLE18=What Have I Done?
TTITLE19=Honey Honey
TTITLE20=She's On The Ball
EXTD=
EXTT0=
EXTT1=
EXTT2=
EXTT3=
EXTT4=
EXTT5=
EXTT6=
EXTT7=
EXTT8=
EXTT9=
EXTT10=
EXTT11=
EXTT12=
EXTT13=
EXTT14=
EXTT15=
EXTT16=
EXTT17=
EXTT18=
EXTT19=
EXTT20=
PLAYORDER=
